<svg width="1378" height="1461" viewBox="0 0 1378 1461" fill="none" xmlns="http://www.w3.org/2000/svg" class="css-1xcg4o9"><g opacity="0.25" filter="url(#filter0_f_1944_47642)"><path fill-rule="evenodd" clip-rule="evenodd" d="M848.517 235.347C760.418 232.974 671.576 249.808 590.747 279.291C531.627 300.716 481.221 331.601 439.092 365.75C281.328 493.51 207.516 696.359 245.279 898.2C255.351 952.098 273.809 1009.04 304.769 1064.81C347.22 1140.92 501.667 1287.72 645.565 1196.35C789.356 1105.2 757.046 904.688 779.293 836.544C801.773 768.516 857.132 716.964 895.433 688.812C904.387 681.264 1057.66 612.182 1098.75 557.132C1134.44 509.483 1156.26 442.214 1133.21 382.193C1093.66 278.967 949.281 237.981 848.517 235.347Z" fill="url(#paint0_linear_1944_47642)"></path></g><defs><filter id="filter0_f_1944_47642" x="0.71048" y="0.280914" width="1376.84" height="1459.94" filterUnits="userSpaceOnUse" color-interpolation-filters="sRGB"><feFlood flood-opacity="0" result="BackgroundImageFix"></feFlood><feBlend mode="normal" in="SourceGraphic" in2="BackgroundImageFix" result="shape"></feBlend><feGaussianBlur stdDeviation="117.422" result="effect1_foregroundBlur_1944_47642"></feGaussianBlur></filter><linearGradient id="paint0_linear_1944_47642" x1="261.8" y1="503.729" x2="975.381" y2="818.059" gradientUnits="userSpaceOnUse"><stop offset="0.140625" stop-color="#82c0ff"></stop><stop offset="0.348958" stop-color="#A6B3EE"></stop><stop offset="0.921875" stop-color="#FF8FD8"></stop></linearGradient></defs></svg>