<svg viewBox="0 0 24 24" fill="none" xmlns="http://www.w3.org/2000/svg" class="_color-0hover-inherit _color-0active-inherit _alignItems-stretch _flexDirection-column _flexBasis-auto _boxSizing-border-box _position-relative _flexShrink-0 _width-1611761821 _height-1611761821 _display-inline _minWidth-1611761821 _minHeight-1611761821 _cursor-inherit _color-inherit _verticalAlign-1690108619  murray-next"><defs><linearGradient id="undefined-:R5edpcp:" x1="0%" y1="0%" x2="0%" y2="100%"></linearGradient></defs><path fill-rule="evenodd" clip-rule="evenodd" d="M5 7a1 1 0 0 1 1-1h12a1 1 0 1 1 0 2H6a1 1 0 0 1-1-1Zm0 5a1 1 0 0 1 1-1h12a1 1 0 1 1 0 2H6a1 1 0 0 1-1-1Zm0 5a1 1 0 0 1 1-1h12a1 1 0 1 1 0 2H6a1 1 0 0 1-1-1Z" fill="#000"></path></svg>