<svg viewBox="0 0 24 24" fill="none" xmlns="http://www.w3.org/2000/svg" defs="[object Object]" class="_alignItems-stretch _flexDirection-column _flexBasis-auto _boxSizing-border-box _position-relative _flexShrink-0 _width-1611761883 _height-1611761883 _display-inline _minWidth-1611761883 _minHeight-1611761883 _cursor-inherit _verticalAlign-1690108619  murray-next"><defs><linearGradient id="orange-to-purple-:R1jljeiacp:" x1="0%" y1="0%" x2="0%" y2="100%"><stop offset="0" stop-color="#FFC38D"></stop><stop offset="0.67" stop-color="#FF9CDC"></stop><stop offset="1.2" stop-color="#D6DBFF"></stop></linearGradient></defs><path d="M13.986 10.41a.996.996 0 0 1-.969-1.239c.365-1.456.96-3.803 1.255-4.822.196-.676-.32-1.349-1.034-1.349H8.06A1.07 1.07 0 0 0 7 3.884L5.015 13.41a1.064 1.064 0 0 0 1.06 1.233h2.872c.711 0 1.227.668 1.035 1.343l-1.233 4.34c-.148.52.498.898.892.522l9.03-8.62c.694-.662.218-1.819-.748-1.819h-3.937Z" fill="url(#orange-to-purple-:R1jljeiacp:)"></path></svg>