<?xml version="1.0" encoding="UTF-8"?>
<!-- Generator: Adobe Illustrator 15.0.0, SVG Export Plug-In . SVG Version: 6.00 Build 0)  -->
<!DOCTYPE svg PUBLIC "-//W3C//DTD SVG 1.1//EN" "http://www.w3.org/Graphics/SVG/1.1/DTD/svg11.dtd">
<svg viewBox="0 0 24 24" fill="none" xmlns="http://www.w3.org/2000/svg" defs="[object Object]" class="_alignItems-stretch _flexDirection-column _flexBasis-auto _boxSizing-border-box _position-relative _flexShrink-0 _width-1611762007 _height-1611762007 _display-inline _minWidth-1611762007 _minHeight-1611762007 _cursor-inherit _verticalAlign-1690108619  murray-next"><defs><linearGradient id="pink-to-blue-:rid:" x1="0%" y1="0%" x2="0%" y2="100%"><stop offset="-0.03" stop-color="#FF8FD8"></stop><stop offset="0.65" stop-color="#8D71FF"></stop><stop offset="0.97" stop-color="#8C99FA"></stop></linearGradient></defs><path d="M14.803 9c0 1.657-1.323 3-2.955 3-1.631 0-2.954-1.343-2.954-3s1.323-3 2.954-3c1.632 0 2.955 1.343 2.955 3ZM12.712 18.995c2.82.014 5.046.026 5.046-1.454 0-1.898-2.742-3.894-5.91-3.894-3.118 0-5.909 2.026-5.909 3.894 0 1.486 2.14 1.473 4.946 1.455a150.155 150.155 0 0 1 1.827 0ZM8.136 12.077c0 1.147-.915 2.077-2.045 2.077s-2.046-.93-2.046-2.077c0-1.147.916-2.077 2.046-2.077s2.045.93 2.045 2.077ZM3.97 17.541c0 .522.115 1.016.34 1.455C2.941 18.97 2 18.81 2 17.99c0-.955 1.053-1.97 2.473-2.435a4.264 4.264 0 0 0-.503 1.986ZM17.91 14.154c1.129 0 2.044-.93 2.044-2.077 0-1.147-.915-2.077-2.045-2.077s-2.045.93-2.045 2.077c0 1.147.915 2.077 2.045 2.077ZM19.727 17.541a4.35 4.35 0 0 0-.55-2.092c1.608.396 2.823 1.49 2.823 2.541 0 .866-1.1.994-2.619 1.007.226-.434.346-.927.346-1.456Z" fill="url(#pink-to-blue-:rid:)"></path></svg>