<?xml version="1.0" encoding="UTF-8"?>
<!-- Generator: Adobe Illustrator 15.0.0, SVG Export Plug-In . SVG Version: 6.00 Build 0)  -->
<!DOCTYPE svg PUBLIC "-//W3C//DTD SVG 1.1//EN" "http://www.w3.org/Graphics/SVG/1.1/DTD/svg11.dtd">
<svg viewBox="0 0 24 24" fill="none" xmlns="http://www.w3.org/2000/svg" defs="[object Object]" class="_alignItems-stretch _flexDirection-column _flexBasis-auto _boxSizing-border-box _position-relative _flexShrink-0 _width-1611762007 _height-1611762007 _display-inline _minWidth-1611762007 _minHeight-1611762007 _cursor-inherit _verticalAlign-1690108619  murray-next"><defs><linearGradient id="yellow-to-green-:rih:" x1="0%" y1="0%" x2="0%" y2="100%"><stop offset="0.16" stop-color="#8EEA7B"></stop><stop offset="0.58" stop-color="#22E39E"></stop><stop offset="0.97" stop-color="#82F2CA"></stop></linearGradient></defs><path d="M18.967 12.637c1.3-.27 2.033-.737 2.033-1.546C21 10 14.48 3 12 3c-2.48 0-9 7-9 8.09 0 .822.732 1.29 2.03 1.558-.02.114-.03.232-.03.352v6a2 2 0 0 0 2 2h2a1 1 0 0 0 1-1v-4a1 1 0 0 1 1-1h2a1 1 0 0 1 1 1v4a1 1 0 0 0 1 1h2a2 2 0 0 0 2-2v-6c0-.124-.011-.245-.033-.363Z" fill="url(#yellow-to-green-:rih:)"></path></svg>