<svg viewBox="0 0 24 24" fill="none" xmlns="http://www.w3.org/2000/svg" class="_color-0hover-c9d1e735 _color-0active-c9d1e735 _alignItems-stretch _flexDirection-column _flexBasis-auto _boxSizing-border-box _position-relative _flexShrink-0 _width-1611761821 _height-1611761821 _display-inline _minWidth-1611761821 _minHeight-1611761821 _cursor-inherit _color-c9d1e735 _verticalAlign-1690108619  murray-next"><defs><linearGradient id="undefined-:Raae6hjcp:" x1="0%" y1="0%" x2="0%" y2="100%"></linearGradient></defs><path fill-rule="evenodd" clip-rule="evenodd" d="M19 18a1 1 0 0 1-1 1h-1.094a1 1 0 0 1-1-1v-3.57c0-1.196-.484-2.013-1.549-2.013-.814 0-1.266.551-1.477 1.082-.08.191-.067.457-.067.722V18a1 1 0 0 1-1 1h-1.06a1 1 0 0 1-1-1.005c.006-1.676.018-5.03.01-6.773a1.052 1.052 0 0 1 1.04-1.053h1.01a1 1 0 0 1 1 1v.386c.181-.606 1.16-1.471 2.724-1.471 1.94 0 3.463 1.27 3.463 4.005V18ZM6.648 9.064h-.02C5.64 9.064 5 8.39 5 7.534 5 6.66 5.66 6 6.667 6c1.007 0 1.626.66 1.645 1.53 0 .857-.638 1.534-1.664 1.534ZM5.353 11.17a1 1 0 0 1 1-1h.729a1 1 0 0 1 1 1V18a1 1 0 0 1-1 1h-.729a1 1 0 0 1-1-1v-6.831Z" fill="currentColor"></path></svg>