<svg viewBox="0 0 24 24" fill="none" xmlns="http://www.w3.org/2000/svg" class="_color-0hover-c9d1e735 _color-0active-c9d1e735 _alignItems-stretch _flexDirection-column _flexBasis-auto _boxSizing-border-box _position-relative _flexShrink-0 _width-1611761821 _height-1611761821 _display-inline _minWidth-1611761821 _minHeight-1611761821 _cursor-inherit _color-c9d1e735 _verticalAlign-1690108619  murray-next"><defs><linearGradient id="undefined-:R8qe6hjcp:" x1="0%" y1="0%" x2="0%" y2="100%"></linearGradient></defs><path fill-rule="evenodd" clip-rule="evenodd" d="M20 7.539a6.539 6.539 0 0 1-1.885.516A3.288 3.288 0 0 0 19.56 6.24a6.564 6.564 0 0 1-2.086.796 3.282 3.282 0 0 0-5.592 2.993A9.317 9.317 0 0 1 5.113 6.6a3.277 3.277 0 0 0-.444 1.652 3.28 3.28 0 0 0 1.46 2.731 3.286 3.286 0 0 1-1.488-.41v.041a3.283 3.283 0 0 0 2.635 3.218 3.268 3.268 0 0 1-1.483.057 3.284 3.284 0 0 0 3.066 2.278 6.586 6.586 0 0 1-4.077 1.406c-.265 0-.527-.015-.783-.045A9.308 9.308 0 0 0 9.032 19c6.038 0 9.34-5 9.34-9.337 0-.143-.003-.286-.009-.425A6.64 6.64 0 0 0 20 7.539Z" fill="currentColor"></path></svg>