<svg viewBox="0 0 24 24" fill="none" xmlns="http://www.w3.org/2000/svg" class="_color-0hover-c9d1e735 _color-0active-c9d1e735 _alignItems-stretch _flexDirection-column _flexBasis-auto _boxSizing-border-box _position-relative _flexShrink-0 _width-1611761821 _height-1611761821 _display-inline _minWidth-1611761821 _minHeight-1611761821 _cursor-inherit _color-c9d1e735 _verticalAlign-1690108619  murray-next"><defs><linearGradient id="undefined-:R9qe6hjcp:" x1="0%" y1="0%" x2="0%" y2="100%"></linearGradient></defs><path d="M13.122 12c0-2.761-2.266-5-5.061-5S3 9.239 3 12s2.266 5 5.06 5c2.796 0 5.062-2.239 5.062-5ZM18.72 12c0-2.543-1.146-4.605-2.56-4.605-1.415 0-2.562 2.062-2.562 4.605 0 2.543 1.147 4.605 2.561 4.605 1.415 0 2.561-2.062 2.561-4.605ZM21 12c0-2.326-.4-4.21-.892-4.21-.493 0-.892 1.884-.892 4.21 0 2.325.4 4.21.892 4.21.493 0 .892-1.885.892-4.21Z" fill="currentColor"></path></svg>