<svg viewBox="0 0 24 24" fill="none" xmlns="http://www.w3.org/2000/svg" class="_color-0hover-c9d1e735 _color-0active-c9d1e735 _alignItems-stretch _flexDirection-column _flexBasis-auto _boxSizing-border-box _position-relative _flexShrink-0 _width-1611761821 _height-1611761821 _display-inline _minWidth-1611761821 _minHeight-1611761821 _cursor-inherit _color-c9d1e735 _verticalAlign-1690108619  murray-next"><defs><linearGradient id="undefined-:R9ae6hjcp:" x1="0%" y1="0%" x2="0%" y2="100%"></linearGradient></defs><path d="M5 21h7.614v-6.97H11.27a1 1 0 0 1-1-1v-.717a1 1 0 0 1 1-1h1.345V9.309c0-2.324 1.42-3.59 3.494-3.59.452 0 .874.015 1.224.035.5.028.872.446.872.947v.555a1 1 0 0 1-1 1h-.438c-1.128 0-1.346.536-1.346 1.322v1.735h1.553a1 1 0 0 1 .991 1.128l-.092.716a1 1 0 0 1-.992.872h-1.46V21H19a2 2 0 0 0 2-2V5a2 2 0 0 0-2-2H5a2 2 0 0 0-2 2v14a2 2 0 0 0 2 2Z" fill="currentColor"></path></svg>