<?xml version="1.0" encoding="UTF-8"?>
<svg id="Calque_1" data-name="Calque 1" xmlns="http://www.w3.org/2000/svg" viewBox="0 0 699.6 145.4">
  <defs>
    <style>
      .cls-1 {
        stroke-width: 0px;
      }
    </style>
  </defs>
  <g id="Artwork">
    <path class="cls-1" d="M398.1,40.78h-26c-2.2,0-4,1.8-4,4v9.6c-6.3-9.5-17.8-15.8-31.3-15.8-30.1,0-49.3,23.5-49.3,53.2s20,53.6,49.5,53.6c14.5,0,24.5-6.1,31.1-16.2v10c0,2.2,1.8,4,4,4h26c2.2,0,4-1.8,4-4V44.78c0-2.2-1.8-4-4-4h0ZM345.1,118.78c-14.4,0-23.4-11.9-23.4-26.9s8.5-26.3,23-26.3,24.1,10.9,24.1,27.3c.1,16.1-10.2,25.8-23.7,25.9h0ZM579.9,40.78h-26c-2.2,0-4,1.8-4,4v9.6c-6.3-9.5-17.8-15.8-31.3-15.8-30.1,0-49.3,23.5-49.3,53.2s20,53.6,49.5,53.6c14.4,0,24.5-6.1,31.1-16.2v10c0,2.2,1.8,4,4,4h26c2.2,0,4-1.8,4-4V44.78c0-2.2-1.8-4-4-4h0ZM526.9,118.78c-14.4,0-23.3-11.9-23.3-26.9s8.5-26.3,23-26.3,24.1,10.9,24.1,27.3c-.1,16.1-10.3,25.8-23.8,25.9h0ZM462.1,118.58h-5.4c-4.3-.1-6.1-3.4-6.1-7.8v-2h0V6.18c0-2.2-1.8-4-4-4h-25.3c-2.2,0-4,1.8-4,4v102.8c0,29.4,18.9,36.3,36.6,36.3,2.4,0,4.8-.2,8.5-.5,2.1-.2,3.7-1.9,3.7-4v-18.2c.1-2.2-1.7-4-4-4,.1,0,0,0,0,0h0ZM663.5,38.58c-13,0-23.2,4.7-30.5,15.6v-9.4c0-2.2-1.8-4-4-4h-26c-2.2,0-4,1.8-4,4v94.5c0,2.2,1.8,4,4,4h26c2.2,0,4-1.8,4-4v-51.4c0-11.7,4.2-22,16.4-22s16.2,12.1,16.2,22v51.4c0,2.2,1.8,4,4,4h26c2.2,0,4-1.8,4-4v-53.4c.2-22.4-6.1-47.3-36.1-47.3h0ZM179.1,103.78c-8.7-3.9-20.3,2.8-30.2,4.4-11.4,2.1-23.2,2.1-34.6,0-9.8-1.6-21.5-8.2-30.2-4.4-4.4,2-5.8,6.8-4,12.6,1.3,4,3.6,7.6,6.6,10.6,6.3,5.9,13.6,10.6,21.6,13.7,14.8,6.3,31.5,6.3,46.4,0,8-3.1,15.4-7.8,21.6-13.7,3-2.9,5.3-6.5,6.7-10.5,1.9-5.8.5-10.7-3.9-12.7ZM263.5,30.08v-.4c0-.4-.1-.9-.1-1.3v-.1c0-.5-.1-1-.2-1.4v-.2c-.1-.4-.1-.9-.2-1.3v-.1c-.1-.4-.2-.9-.3-1.3v-.1c-2.8-11.7-11.9-21.2-24-23.4-16.4-3-32,8.4-34.9,25.4-.1.4-.1.8-.1,1.2-1,9.3,5.1,17.9,14,19.6,3.2.6,6.6.2,9.6-1.1,2.5-1.1,5.3-.6,7.3,1.3,2.4,2.3,5.4,3.9,8.7,4.5,9.3,1.7,18.2-4.8,19.9-14.5.2-1.5.4-3,.4-4.5v-1.4c-.1-.2-.1-.5-.1-.9h0ZM131.7,4.58c-33,0-53.5,11.6-53.5,30.4,0,21.8,21,51.7,53.5,51.7s53.5-30.1,53.5-51.6c0-19.2-20-30.5-53.5-30.5ZM59.6,25.98C56.7,8.88,41-2.52,24.7.58,12.6,2.78,3.5,12.28.8,23.98v.1c-.1.4-.2.9-.3,1.3v.1c-.1.4-.1.9-.2,1.3v.2c-.1.5-.1.9-.2,1.4v.1c0,.4-.1.9-.1,1.3v2.8c0,1.5.2,3,.4,4.5,1.7,9.7,10.6,16.2,19.9,14.5,3.3-.6,6.3-2.2,8.7-4.5,1.9-1.9,4.8-2.4,7.3-1.3,3,1.3,6.3,1.7,9.6,1.1,9-1.6,15-10.3,14.1-19.6-.3-.6-.4-.9-.4-1.3h0Z"/>
  </g>
</svg>