<svg width="50" height="31" viewBox="0 0 50 31" fill="none" xmlns="http://www.w3.org/2000/svg" class="css-1f6lv2r"><path d="M9.20907 27.9061C8.55959 29.186 9.46306 30.6954 10.905 30.6954C11.466 30.6954 11.9959 30.4524 12.3624 30.03C14.4163 27.6603 21.1516 19.3885 21.8547 12.1085C21.899 11.713 21.9262 11.3119 21.9262 10.904C21.9262 10.5729 21.9075 10.2786 21.8806 10.002C21.3779 3.93101 15.8885 -0.733749 9.48855 0.0957663C4.58526 0.732148 0.632922 4.73897 0.0731799 9.62614C-0.613434 15.6342 3.61447 20.8092 9.27302 21.6795C10.1482 21.8153 10.7177 22.6619 10.4733 23.509L9.20907 27.9061Z" fill="url(#paint0_linear_1776_48021)"></path><path d="M36.9822 27.9061C36.3331 29.186 37.2362 30.6954 38.6781 30.6954C39.2392 30.6954 39.7684 30.4524 40.1356 30.03C42.1902 27.6603 48.9247 19.3885 49.6288 12.1085C49.6723 11.7127 49.6996 11.3115 49.6996 10.904C49.6996 10.5729 49.6808 10.2786 49.6539 10.002C49.1513 3.93101 43.6619 -0.733749 37.2619 0.0957663C32.3586 0.732148 28.4059 4.73897 27.8465 9.62705C27.1603 15.6343 31.3882 20.8092 37.0464 21.6795C37.9215 21.8153 38.4911 22.6619 38.2466 23.509L36.9822 27.9061Z" fill="url(#paint1_linear_1776_48021)"></path><defs><linearGradient id="paint0_linear_1776_48021" x1="10.9631" y1="-5.71747e-08" x2="10.0672" y2="30.6693" gradientUnits="userSpaceOnUse"><stop stop-color="#8AFFBB"></stop><stop offset="0.32446" stop-color="#99E9CC"></stop><stop offset="0.755208" stop-color="#83D9E2"></stop><stop offset="1" stop-color="#82c0ff"></stop></linearGradient><linearGradient id="paint1_linear_1776_48021" x1="38.7365" y1="-5.71747e-08" x2="37.8406" y2="30.6693" gradientUnits="userSpaceOnUse"><stop stop-color="#8AFFBB"></stop><stop offset="0.32446" stop-color="#99E9CC"></stop><stop offset="0.755208" stop-color="#83D9E2"></stop><stop offset="1" stop-color="#82c0ff"></stop></linearGradient></defs></svg>